<?xml version="1.0" encoding="UTF-8"?>
<svg id="Layer_2" data-name="Layer 2" xmlns="http://www.w3.org/2000/svg" viewBox="0 0 487.14 487.14">
  <defs>
    <style>
      .cls-1 {
        fill: none;
        stroke: #f471b4;
        stroke-miterlimit: 10;
        stroke-width: 15px;
      }

      .cls-2 {
        fill: #f471b4;
      }
    </style>
  </defs>
  <g id="Layer_1" data-name="Layer 1">
    <rect width="487.14" height="487.14"/>
    <g>
      <circle class="cls-1" cx="171.29" cy="243.34" r="87.98"/>
      <circle class="cls-1" cx="315.85" cy="243.8" r="87.98"/>
      <path class="cls-2" d="M338.55,233.64l3.82-17.03h17.37l-15.95,59.16h-18.61l-3.66-17.53c-1.72-8.36-3.05-15.57-3.99-21.6-1.05,6.54-2.41,13.74-4.07,21.6l-3.66,17.53h-18.61l-15.95-59.16h17.37l3.82,17.03c2.44,10.8,4.1,18.7,4.99,23.68,1.27-7.76,2.74-15.65,4.4-23.68l3.49-17.03h16.37l3.49,17.03c1.66,8.03,3.13,15.93,4.4,23.68.94-4.99,2.6-12.88,4.99-23.68Z"/>
      <path class="cls-2" d="M174.76,237.89v-21.79h16.76v59.68h-16.76v-22.97h-20.54v22.97h-16.76v-59.68h16.76v21.79h20.54Z"/>
    </g>
  </g>
</svg>